<svg width="150" height="150" viewBox="0 0 150 150" fill="none" xmlns="http://www.w3.org/2000/svg">
<g clip-path="url(#clip0_551_37)">
<path d="M110.26 30.6239V11.646C110.26 5.2242 105.036 0 98.614 0H50.1668C43.745 0 38.5208 5.2242 38.5208 11.646V30.6239C36.3065 31.7975 34.7939 34.1255 34.7939 36.8011V42.3912C34.7939 45.0669 36.3062 47.3948 38.5205 48.5685V53.8817C38.5205 60.3036 43.7447 65.5278 50.1665 65.5278H56.7902C61.5838 69.3712 67.6218 71.6895 74.1749 71.7384C74.2476 71.7387 74.3194 71.739 74.392 71.739C81.9433 71.739 89.0448 68.8146 94.4082 63.4908C98.36 59.5682 101.009 54.6918 102.156 49.3788H106.999C110.852 49.3788 113.986 46.2444 113.986 42.3912V36.8011C113.987 34.1255 112.474 31.7975 110.26 30.6239ZM43.1793 11.646C43.1793 8.51891 45.2438 5.86521 48.0818 4.97635C46.7558 6.86716 45.9745 9.16637 45.9745 11.646V29.8136H43.1796V11.646H43.1793ZM41.7815 44.7203C40.4971 44.7203 39.4524 43.6756 39.4524 42.3912V36.8011C39.4524 35.5168 40.4971 34.472 41.7815 34.472H45.9742V42.9953C45.9745 43.5745 45.9938 44.1493 46.0272 44.7203H41.7815ZM50.1668 60.8693C46.3137 60.8693 43.1793 57.7348 43.1793 53.8817V49.3785H46.6852C47.6494 53.6421 49.5581 57.5517 52.174 60.8693H50.1668ZM98.1482 43.3229C98.1482 49.702 95.6545 55.6905 91.1269 60.1846C86.5997 64.6785 80.5783 67.1294 74.2098 67.0796C71.3296 67.0582 68.5699 66.5095 66.0164 65.5275H74.3903C75.6767 65.5275 76.7194 64.4845 76.7194 63.1984C76.7194 61.9123 75.6764 60.8693 74.3903 60.8693H58.507C53.6783 56.4522 50.6327 50.0676 50.6327 42.995V36.1074L87.461 18.8448L98.1482 30.9892V43.3229ZM98.1482 23.9375L89.8036 14.455C89.1195 13.6778 88.0042 13.4457 87.0667 13.8849L50.6329 30.9632V11.646C50.6329 7.79294 53.7674 4.65848 57.6205 4.65848H91.1606C95.0137 4.65848 98.1482 7.79294 98.1482 11.646V23.9375ZM100.699 4.97606C103.537 5.86521 105.602 8.51891 105.602 11.6458V29.8133H102.807V11.646C102.806 9.16608 102.025 6.86716 100.699 4.97606ZM109.328 42.3912C109.328 43.6756 108.283 44.7203 106.999 44.7203H102.772C102.795 44.2563 102.807 43.7905 102.807 43.3229V34.472H106.999C108.284 34.472 109.328 35.5168 109.328 36.8011L109.328 42.3912Z" fill="#35333C"/>
<path d="M90.5393 36.0248H85.5703C84.2839 36.0248 83.2412 37.0677 83.2412 38.3539C83.2412 39.64 84.2842 40.683 85.5703 40.683H90.5393C91.8257 40.683 92.8684 39.64 92.8684 38.3539C92.8684 37.0677 91.8257 36.0248 90.5393 36.0248Z" fill="#35333C"/>
<path d="M63.2102 36.0248H58.2412C56.9548 36.0248 55.9121 37.0677 55.9121 38.3539C55.9121 39.64 56.9551 40.683 58.2412 40.683H63.2102C64.4966 40.683 65.5393 39.64 65.5393 38.3539C65.5393 37.0677 64.4966 36.0248 63.2102 36.0248Z" fill="#35333C"/>
<path d="M83.2413 48.913C82.2124 48.1416 80.7522 48.3499 79.9805 49.3788C77.943 52.0955 74.7479 52.1737 74.3904 52.1737C70.9946 52.1737 69.0151 49.6647 68.8003 49.3788C68.0286 48.3496 66.5688 48.1413 65.5396 48.913C64.5107 49.6846 64.3021 51.1448 65.0738 52.1737C65.6571 52.9515 68.8484 56.8322 74.3904 56.8322C75.3628 56.8322 80.3816 56.6078 83.7071 52.1737C84.4788 51.1448 84.2702 49.6846 83.2413 48.913Z" fill="#35333C"/>
<path d="M70.6636 120.186C71.95 120.186 72.9927 119.143 72.9927 117.857V102.95C72.9927 101.664 71.9497 100.621 70.6636 100.621H55.7568C54.4704 100.621 53.4277 101.664 53.4277 102.95C53.4277 104.236 54.4707 105.279 55.7568 105.279H68.3345V115.527H55.7568C54.4704 115.527 53.4277 116.57 53.4277 117.856V132.763C53.4277 134.05 54.4707 135.092 55.7568 135.092H70.6636C71.95 135.092 72.9927 134.049 72.9927 132.763C72.9927 131.477 71.9497 130.434 70.6636 130.434H58.0859V120.186H70.6636Z" fill="#35333C"/>
<path d="M97.9927 120.496H94.1106V109.161C94.1106 107.874 93.0676 106.832 91.7815 106.832C90.4954 106.832 89.4524 107.875 89.4524 109.161V120.496H81.6885V102.95C81.6885 101.664 80.6455 100.621 79.3594 100.621C78.0729 100.621 77.0303 101.664 77.0303 102.95V122.826C77.0303 124.112 78.0732 125.155 79.3594 125.155H89.4524V132.764C89.4524 134.05 90.4954 135.093 91.7815 135.093C93.0676 135.093 94.1106 134.05 94.1106 132.764V125.155H97.9927C99.2791 125.155 100.322 124.112 100.322 122.826C100.322 121.54 99.2791 120.496 97.9927 120.496Z" fill="#35333C"/>
<path d="M124.079 59.6271C119.385 59.6271 114.78 61.1356 110.997 63.8939L99.5886 62.139C98.7132 62.0034 97.8369 62.3778 97.3281 63.1029C96.8192 63.8277 96.7653 64.7787 97.1898 65.5562L100.731 72.0493H50.61V70.781C50.61 69.6419 49.7861 68.6702 48.6623 68.4835C47.5584 68.2999 46.4794 68.9297 46.0942 69.9777C46.0329 70.1133 45.7924 70.5835 44.8781 72.0718C44.7787 72.0589 44.6783 72.0501 44.5757 72.0501H42.7124C36.447 72.0501 31.3239 77.0241 31.0784 83.2304H6.04491C4.75849 83.2304 3.71582 84.2733 3.71582 85.5595V120.342C3.71582 121.628 4.75879 122.671 6.04491 122.671H31.067V143.013C31.067 146.866 34.2014 150 38.0546 150H50.7875C52.0739 150 53.1166 148.957 53.1166 147.671C53.1166 146.385 52.0736 145.342 50.7875 145.342H38.0546C36.7702 145.342 35.7255 144.297 35.7255 143.013V122.671H48.2809C49.5673 122.671 50.61 121.628 50.61 120.342V104.193C50.61 102.906 49.567 101.864 48.2809 101.864C46.9948 101.864 45.9518 102.907 45.9518 104.193V118.013H8.3743V87.888H38.9317C39.7136 87.888 40.4434 87.4957 40.8747 86.8432C43.013 83.6089 44.6689 81.0747 45.9521 79.0846V94.2544C45.9521 95.5409 46.995 96.5835 48.2812 96.5835C49.5673 96.5835 50.6103 95.5406 50.6103 94.2544V76.7077H58.3639L72.5714 94.4668C73.0132 95.0194 73.6826 95.3411 74.3902 95.3411C75.0977 95.3411 75.7668 95.0194 76.2089 94.4668L90.4167 76.7077H102.477C102.079 78.385 101.875 80.1009 101.875 81.832C101.875 90.065 106.382 97.26 113.055 101.094V143.012C113.055 144.296 112.01 145.341 110.726 145.341H63.2096C61.9232 145.341 60.8805 146.384 60.8805 147.67C60.8805 148.956 61.9235 149.999 63.2096 149.999H110.725C114.578 149.999 117.712 146.865 117.712 143.012V103.102C119.73 103.707 121.866 104.037 124.079 104.037C136.323 104.037 146.284 94.0757 146.284 81.832C146.284 69.5883 136.323 59.6271 124.079 59.6271ZM37.6784 83.2295H35.7427C35.9657 79.8604 38.5863 77.1372 41.9103 76.7552C40.8111 78.4582 39.4274 80.5784 37.6784 83.2295ZM74.3902 89.2837L64.3294 76.708H84.4507L74.3902 89.2837ZM124.079 99.3784C114.404 99.3784 106.533 91.507 106.533 81.832C106.533 79.9195 106.844 78.0299 107.457 76.2147C107.665 75.5991 107.607 74.9244 107.295 74.3537L103.535 67.4585L111.272 68.6488C111.918 68.7484 112.577 68.5714 113.086 68.161C116.234 65.6256 120.036 64.2856 124.08 64.2856C133.755 64.2856 141.626 72.1571 141.626 81.832C141.626 91.507 133.754 99.3784 124.079 99.3784Z" fill="#35333C"/>
<path d="M124.08 78.2604C122.793 78.2604 121.75 79.3034 121.75 80.5895V91.7695C121.75 93.0559 122.793 94.0986 124.08 94.0986C125.366 94.0986 126.409 93.0556 126.409 91.7695V80.5895C126.409 79.3034 125.366 78.2604 124.08 78.2604Z" fill="#35333C"/>
<path d="M124.08 70.8071C122.793 70.8071 121.75 71.85 121.75 73.1362V74.3783C121.75 75.6648 122.793 76.7074 124.08 76.7074C125.366 76.7074 126.409 75.6645 126.409 74.3783V73.1362C126.409 71.85 125.366 70.8071 124.08 70.8071Z" fill="#35333C"/>
<path d="M25.9431 89.4407C21.234 89.4407 17.4028 93.2718 17.4028 97.981C17.4028 99.2674 18.4458 100.31 19.7319 100.31C21.0181 100.31 22.061 99.2671 22.061 97.981C22.061 95.8403 23.8024 94.0992 25.9431 94.0992C28.0838 94.0992 29.825 95.8406 29.825 97.981C29.825 100.121 28.0836 101.863 25.9431 101.863C24.6567 101.863 23.614 102.906 23.614 104.192V106.677C23.614 107.963 24.657 109.006 25.9431 109.006C27.2293 109.006 28.2722 107.963 28.2722 106.677V106.198C31.8529 105.182 34.4834 101.883 34.4834 97.981C34.4834 93.2718 30.6526 89.4407 25.9431 89.4407Z" fill="#35333C"/>
<path d="M25.9434 110.559C24.6569 110.559 23.6143 111.602 23.6143 112.888V114.13C23.6143 115.416 24.6572 116.459 25.9434 116.459C27.2295 116.459 28.2724 115.416 28.2724 114.13V112.888C28.2727 111.601 27.2298 110.559 25.9434 110.559Z" fill="#35333C"/>
</g>
<defs>
<clipPath id="clip0_551_37">
<rect width="150" height="150" fill="white"/>
</clipPath>
</defs>
</svg>
