<svg width="104" height="136" viewBox="0 0 104 136" fill="none" xmlns="http://www.w3.org/2000/svg">
<path fill-rule="evenodd" clip-rule="evenodd" d="M0 84.375V128.906C0 132.79 3.14766 135.938 7.03125 135.938C18.0234 135.938 44.5312 135.938 44.5312 135.938C45.825 135.938 46.875 134.887 46.875 133.594C46.875 132.3 45.825 131.25 44.5312 131.25C44.5312 131.25 18.0234 131.25 7.03125 131.25C5.7375 131.25 4.6875 130.2 4.6875 128.906V84.375C4.6875 83.0813 3.6375 82.0312 2.34375 82.0312C1.05 82.0312 0 83.0813 0 84.375ZM53.9062 135.938H96.0938C97.9594 135.938 99.7477 135.197 101.065 133.877C102.384 132.56 103.125 130.772 103.125 128.906V89.0625C103.125 87.7688 102.075 86.7188 100.781 86.7188C99.4875 86.7188 98.4375 87.7688 98.4375 89.0625V128.906C98.4375 129.527 98.1914 130.125 97.7508 130.563C97.3125 131.004 96.7148 131.25 96.0938 131.25H53.9062C52.6125 131.25 51.5625 132.3 51.5625 133.594C51.5625 134.887 52.6125 135.938 53.9062 135.938ZM44.5312 128.906H59.7656C61.0594 128.906 62.1094 127.856 62.1094 126.562C62.1094 125.269 61.0594 124.219 59.7656 124.219H44.5312C43.2375 124.219 42.1875 125.269 42.1875 126.562C42.1875 127.856 43.2375 128.906 44.5312 128.906ZM41.0156 121.875H63.2812C64.575 121.875 65.625 120.825 65.625 119.531C65.625 118.238 64.575 117.188 63.2812 117.188H41.0156C39.7219 117.188 38.6719 118.238 38.6719 119.531C38.6719 120.825 39.7219 121.875 41.0156 121.875ZM37.2586 114.178C37.6969 114.605 38.2828 114.844 38.8945 114.844H64.2305C64.8422 114.844 65.4281 114.605 65.8664 114.178C73.7039 106.545 82.0312 94.7906 82.0312 79.5938C82.0312 62.8312 68.3812 49.2188 51.5625 49.2188C34.7438 49.2188 21.0938 62.8312 21.0938 79.5938C21.0938 94.7906 29.4211 106.545 37.2586 114.178ZM58.5938 110.156C61.343 110.156 63.2695 110.156 63.2695 110.156C70.1625 103.245 77.3438 92.9062 77.3438 79.5938C77.3438 65.4141 65.7891 53.9062 51.5625 53.9062C37.3359 53.9062 25.7812 65.4141 25.7812 79.5938C25.7812 92.9062 32.9625 103.245 39.8555 110.156H44.5312V86.7188H39.8438C34.6688 86.7188 30.4688 82.5188 30.4688 77.3438C30.4688 72.1687 34.6688 67.9688 39.8438 67.9688C45.0187 67.9688 49.2188 72.1687 49.2188 77.3438V82.0312H53.9062V77.3438C53.9062 72.1687 58.1063 67.9688 63.2812 67.9688C68.4563 67.9688 72.6562 72.1687 72.6562 77.3438C72.6562 82.5188 68.4563 86.7188 63.2812 86.7188H58.5938V110.156ZM49.2188 86.7188V110.156H53.9062V86.7188H49.2188ZM58.5938 82.0312H63.2812C65.8688 82.0312 67.9688 79.9313 67.9688 77.3438C67.9688 74.7562 65.8688 72.6562 63.2812 72.6562C60.6937 72.6562 58.5938 74.7562 58.5938 77.3438V82.0312ZM44.5312 82.0312V77.3438C44.5312 74.7562 42.4313 72.6562 39.8438 72.6562C37.2562 72.6562 35.1562 74.7562 35.1562 77.3438C35.1562 79.9313 37.2562 82.0312 39.8438 82.0312H44.5312ZM0 16.4062V75C0 76.2937 1.05 77.3438 2.34375 77.3438C3.6375 77.3438 4.6875 76.2937 4.6875 75V28.6383C4.72734 28.6781 4.76484 28.718 4.80469 28.7578C7.88203 31.8352 12.0539 33.5625 16.4062 33.5625C27.8742 33.5625 42.1875 33.5625 42.1875 33.5625C43.4813 33.5625 44.5312 32.5125 44.5312 31.2188C44.5312 29.925 43.4813 28.875 42.1875 28.875C42.1875 28.875 27.8742 28.875 16.4062 28.875C13.2984 28.875 10.3172 27.6398 8.11875 25.4438C5.92266 23.2453 4.6875 20.2641 4.6875 17.1562C4.6875 16.9055 4.6875 16.657 4.6875 16.4062C4.6875 13.2984 5.92266 10.3172 8.11875 8.11875C10.3172 5.92266 13.2984 4.6875 16.4062 4.6875H88.9547V14.4375H16.4062C15.1125 14.4375 14.0625 15.4875 14.0625 16.7812C14.0625 18.075 15.1125 19.125 16.4062 19.125H88.9547V28.875H66.968H66.9633H51.5625C50.2687 28.875 49.2188 29.925 49.2188 31.2188C49.2188 32.5125 50.2687 33.5625 51.5625 33.5625H96.0938C97.3875 33.5625 98.4375 34.6125 98.4375 35.9062V78.5156C98.4375 79.8094 99.4875 80.8594 100.781 80.8594C102.075 80.8594 103.125 79.8094 103.125 78.5156V35.9062C103.125 32.0227 99.9773 28.875 96.0938 28.875H93.6422V2.34375C93.6422 1.05 92.5922 0 91.2984 0H16.4062C12.0539 0 7.88203 1.72734 4.80469 4.80469C1.72734 7.88203 0 12.0539 0 16.4062ZM38.6508 47.3625L36.307 43.3031C35.6602 42.1828 34.2258 41.7984 33.1055 42.4453C31.9852 43.0922 31.6008 44.5266 32.2477 45.6469L34.5914 49.7062C35.2383 50.8266 36.6727 51.2109 37.793 50.5641C38.9133 49.9172 39.2977 48.4828 38.6508 47.3625ZM68.5336 49.7062L70.8773 45.6469C71.5242 44.5266 71.1398 43.0922 70.0195 42.4453C68.8992 41.7984 67.4648 42.1828 66.818 43.3031L64.4742 47.3625C63.8273 48.4828 64.2117 49.9172 65.332 50.5641C66.4523 51.2109 67.8867 50.8266 68.5336 49.7062ZM53.9062 44.5312V39.8438C53.9062 38.55 52.8563 37.5 51.5625 37.5C50.2687 37.5 49.2188 38.55 49.2188 39.8438V44.5312C49.2188 45.825 50.2687 46.875 51.5625 46.875C52.8563 46.875 53.9062 45.825 53.9062 44.5312Z" fill="#35333C"/>
</svg>
