<svg width="198" height="152" viewBox="0 0 198 152" fill="none" xmlns="http://www.w3.org/2000/svg">
<path d="M2.464 116V96.56H10.456V99.008H6.016V104.672H9.64V107.144H6.016V116H2.464ZM11.0716 116L14.9596 96.56H18.7516L22.6396 116H19.3516L18.5836 111.512H15.1996L14.4076 116H11.0716ZM15.5596 109.256H18.1996L16.8796 101.096L15.5596 109.256ZM24.8346 116V96.56H29.6106C30.4746 96.56 31.2506 96.64 31.9386 96.8C32.6426 96.96 33.2426 97.232 33.7386 97.616C34.2506 97.984 34.6426 98.488 34.9146 99.128C35.1866 99.768 35.3226 100.576 35.3226 101.552C35.3226 102.336 35.2106 103.008 34.9866 103.568C34.7786 104.128 34.4666 104.576 34.0506 104.912C33.6346 105.232 33.1146 105.448 32.4906 105.56C33.2586 105.688 33.8906 105.96 34.3866 106.376C34.8986 106.776 35.2746 107.304 35.5146 107.96C35.7706 108.616 35.8986 109.408 35.8986 110.336C35.8986 111.264 35.7786 112.088 35.5386 112.808C35.3146 113.512 34.9706 114.104 34.5066 114.584C34.0586 115.048 33.4906 115.4 32.8026 115.64C32.1306 115.88 31.3386 116 30.4266 116H24.8346ZM28.3866 113.504H29.7306C30.8026 113.504 31.5306 113.248 31.9146 112.736C32.2986 112.208 32.4906 111.4 32.4906 110.312C32.4906 109.528 32.3946 108.896 32.2026 108.416C32.0266 107.92 31.7226 107.552 31.2906 107.312C30.8746 107.072 30.3146 106.952 29.6106 106.952H28.3866V113.504ZM28.3866 104.504H29.5866C30.2906 104.504 30.8346 104.4 31.2186 104.192C31.6026 103.984 31.8666 103.664 32.0106 103.232C32.1706 102.8 32.2506 102.256 32.2506 101.6C32.2506 100.912 32.1306 100.384 31.8906 100.016C31.6666 99.632 31.3226 99.376 30.8586 99.248C30.3946 99.104 29.8026 99.032 29.0826 99.032H28.3866V104.504ZM38.434 116V96.56H43.09C44.402 96.56 45.506 96.72 46.402 97.04C47.314 97.344 48.002 97.872 48.466 98.624C48.946 99.376 49.186 100.4 49.186 101.696C49.186 102.48 49.114 103.184 48.97 103.808C48.826 104.432 48.578 104.968 48.226 105.416C47.89 105.848 47.418 106.184 46.81 106.424L49.522 116H45.97L43.618 107.096H41.986V116H38.434ZM41.986 104.864H43.09C43.778 104.864 44.322 104.768 44.722 104.576C45.138 104.368 45.434 104.048 45.61 103.616C45.786 103.168 45.874 102.6 45.874 101.912C45.874 100.936 45.69 100.208 45.322 99.728C44.97 99.232 44.29 98.984 43.282 98.984H41.986V104.864ZM52.2231 116V96.56H55.7271V116H52.2231ZM64.2085 116.264C62.7845 116.264 61.6645 115.984 60.8485 115.424C60.0485 114.864 59.4885 114.104 59.1685 113.144C58.8485 112.168 58.6885 111.048 58.6885 109.784V102.848C58.6885 101.52 58.8485 100.368 59.1685 99.392C59.4885 98.416 60.0485 97.664 60.8485 97.136C61.6645 96.608 62.7845 96.344 64.2085 96.344C65.5525 96.344 66.6005 96.576 67.3525 97.04C68.1205 97.488 68.6645 98.136 68.9845 98.984C69.3045 99.832 69.4645 100.816 69.4645 101.936V103.568H66.0565V101.888C66.0565 101.344 66.0245 100.848 65.9605 100.4C65.9125 99.952 65.7605 99.6 65.5045 99.344C65.2645 99.072 64.8405 98.936 64.2325 98.936C63.6245 98.936 63.1765 99.08 62.8885 99.368C62.6165 99.64 62.4405 100.016 62.3605 100.496C62.2805 100.96 62.2405 101.488 62.2405 102.08V110.528C62.2405 111.232 62.2965 111.816 62.4085 112.28C62.5205 112.728 62.7205 113.072 63.0085 113.312C63.3125 113.536 63.7205 113.648 64.2325 113.648C64.8245 113.648 65.2405 113.512 65.4805 113.24C65.7365 112.952 65.8965 112.576 65.9605 112.112C66.0245 111.648 66.0565 111.128 66.0565 110.552V108.8H69.4645V110.36C69.4645 111.512 69.3125 112.536 69.0085 113.432C68.7045 114.312 68.1685 115.008 67.4005 115.52C66.6485 116.016 65.5845 116.264 64.2085 116.264ZM71.1934 116L75.0814 96.56H78.8734L82.7614 116H79.4734L78.7054 111.512H75.3214L74.5294 116H71.1934ZM75.6814 109.256H78.3214L77.0014 101.096L75.6814 109.256ZM85.9864 116V99.176H82.8904V96.56H92.5864V99.176H89.5384V116H85.9864ZM94.5949 116V96.56H102.755V99.056H98.1469V104.648H101.771V107.12H98.1469V113.552H102.803V116H94.5949ZM105.101 116V96.56H109.685C111.269 96.56 112.501 96.776 113.381 97.208C114.277 97.64 114.909 98.304 115.277 99.2C115.661 100.096 115.853 101.232 115.853 102.608V109.712C115.853 111.12 115.661 112.296 115.277 113.24C114.909 114.168 114.285 114.864 113.405 115.328C112.541 115.776 111.349 116 109.829 116H105.101ZM108.653 113.528H109.733C110.549 113.528 111.133 113.384 111.485 113.096C111.837 112.808 112.053 112.392 112.133 111.848C112.213 111.288 112.253 110.608 112.253 109.808V102.368C112.253 101.584 112.197 100.952 112.085 100.472C111.973 99.992 111.741 99.64 111.389 99.416C111.037 99.192 110.469 99.08 109.685 99.08H108.653V113.528ZM124.728 116L125.064 96.56H128.736L131.496 110.024L134.376 96.56H137.928L138.288 116H135.648L135.36 102.488L132.6 116H130.464L127.656 102.44L127.392 116H124.728ZM141.399 116V96.56H149.559V99.056H144.951V104.648H148.575V107.12H144.951V113.552H149.607V116H141.399ZM153.848 116V99.176H150.752V96.56H160.448V99.176H157.4V116H153.848ZM161.004 116L164.892 96.56H168.684L172.572 116H169.284L168.516 111.512H165.132L164.34 116H161.004ZM165.492 109.256H168.132L166.812 101.096L165.492 109.256ZM174.767 116V96.56H178.319V113.552H183.023V116H174.767ZM189.911 116.264C188.743 116.264 187.767 116.04 186.983 115.592C186.199 115.128 185.607 114.456 185.207 113.576C184.807 112.696 184.583 111.616 184.535 110.336L187.583 109.736C187.615 110.488 187.703 111.152 187.847 111.728C188.007 112.304 188.239 112.752 188.543 113.072C188.863 113.376 189.279 113.528 189.791 113.528C190.367 113.528 190.775 113.36 191.015 113.024C191.255 112.672 191.375 112.232 191.375 111.704C191.375 110.856 191.183 110.16 190.799 109.616C190.415 109.072 189.903 108.528 189.263 107.984L186.815 105.824C186.127 105.232 185.575 104.576 185.159 103.856C184.759 103.12 184.559 102.216 184.559 101.144C184.559 99.608 185.007 98.424 185.903 97.592C186.799 96.76 188.023 96.344 189.575 96.344C190.487 96.344 191.247 96.488 191.855 96.776C192.463 97.048 192.943 97.432 193.295 97.928C193.663 98.424 193.935 98.992 194.111 99.632C194.287 100.256 194.399 100.92 194.447 101.624L191.423 102.152C191.391 101.544 191.319 101 191.207 100.52C191.111 100.04 190.927 99.664 190.655 99.392C190.399 99.12 190.015 98.984 189.503 98.984C188.975 98.984 188.567 99.16 188.279 99.512C188.007 99.848 187.871 100.272 187.871 100.784C187.871 101.44 188.007 101.984 188.279 102.416C188.551 102.832 188.943 103.264 189.455 103.712L191.879 105.848C192.679 106.52 193.359 107.312 193.919 108.224C194.495 109.12 194.783 110.208 194.783 111.488C194.783 112.416 194.575 113.24 194.159 113.96C193.759 114.68 193.191 115.248 192.455 115.664C191.735 116.064 190.887 116.264 189.911 116.264Z" fill="#F5F5F5"/>
<path d="M20.14 91.836C16.4413 91.836 13.3507 91.1267 10.868 89.708C8.38533 88.2387 6.51067 86.1107 5.244 83.324C3.97733 80.5373 3.268 77.1173 3.116 73.064L12.768 71.164C12.8693 73.5453 13.148 75.648 13.604 77.472C14.1107 79.296 14.8453 80.7147 15.808 81.728C16.8213 82.6907 18.1387 83.172 19.76 83.172C21.584 83.172 22.876 82.64 23.636 81.576C24.396 80.4613 24.776 79.068 24.776 77.396C24.776 74.7107 24.168 72.5067 22.952 70.784C21.736 69.0613 20.1147 67.3387 18.088 65.616L10.336 58.776C8.15733 56.9013 6.40933 54.824 5.092 52.544C3.82533 50.2133 3.192 47.3507 3.192 43.956C3.192 39.092 4.61067 35.3427 7.448 32.708C10.2853 30.0733 14.1613 28.756 19.076 28.756C21.964 28.756 24.3707 29.212 26.296 30.124C28.2213 30.9853 29.7413 32.2013 30.856 33.772C32.0213 35.3427 32.8827 37.1413 33.44 39.168C33.9973 41.144 34.352 43.2467 34.504 45.476L24.928 47.148C24.8267 45.2227 24.5987 43.5 24.244 41.98C23.94 40.46 23.3573 39.2693 22.496 38.408C21.6853 37.5467 20.4693 37.116 18.848 37.116C17.176 37.116 15.884 37.6733 14.972 38.788C14.1107 39.852 13.68 41.1947 13.68 42.816C13.68 44.8933 14.1107 46.616 14.972 47.984C15.8333 49.3013 17.0747 50.6693 18.696 52.088L26.372 58.852C28.9053 60.98 31.0587 63.488 32.832 66.376C34.656 69.2133 35.568 72.6587 35.568 76.712C35.568 79.6507 34.9093 82.26 33.592 84.54C32.3253 86.82 30.5267 88.6187 28.196 89.936C25.916 91.2027 23.2307 91.836 20.14 91.836ZM49.1067 91V37.724H39.3027V29.44H70.0067V37.724H60.3547V91H49.1067ZM76.3669 91V29.44H102.207V37.344H87.6149V55.052H99.0909V62.88H87.6149V83.248H102.359V91H76.3669ZM109.483 91L110.547 29.44H122.175L130.915 72.076L140.035 29.44H151.283L152.423 91H144.063L143.151 48.212L134.411 91H127.647L118.755 48.06L117.919 91H109.483ZM159.158 91L171.47 29.44H183.478L195.79 91H185.378L182.946 76.788H172.23L169.722 91H159.158ZM173.37 69.644H181.73L177.55 43.804L173.37 69.644Z" fill="#F5F5F5"/>
<path d="M1.652 144L2.044 121.32H6.328L9.548 137.028L12.908 121.32H17.052L17.472 144H14.392L14.056 128.236L10.836 144H8.344L5.068 128.18L4.76 144H1.652ZM20.5133 144L25.0493 121.32H29.4733L34.0093 144H30.1733L29.2773 138.764H25.3293L24.4053 144H20.5133ZM25.7493 136.132H28.8293L27.2893 126.612L25.7493 136.132ZM37.1302 144V121.32H40.0142L45.5302 134.256V121.32H48.9462V144H46.2022L40.6582 130.448V144H37.1302ZM59.444 144.308C57.764 144.308 56.4573 144 55.524 143.384C54.5907 142.768 53.9467 141.891 53.592 140.752C53.2373 139.613 53.06 138.251 53.06 136.664V121.32H57.092V137.14C57.092 137.849 57.1387 138.521 57.232 139.156C57.3253 139.772 57.54 140.276 57.876 140.668C58.2307 141.041 58.7533 141.228 59.444 141.228C60.172 141.228 60.6947 141.041 61.012 140.668C61.348 140.276 61.5627 139.772 61.656 139.156C61.768 138.521 61.824 137.849 61.824 137.14V121.32H65.828V136.664C65.828 138.251 65.6507 139.613 65.296 140.752C64.9413 141.891 64.2973 142.768 63.364 143.384C62.4493 144 61.1427 144.308 59.444 144.308ZM69.9274 144V121.32H79.2514V124.176H74.0714V130.784H78.2994V133.668H74.0714V144H69.9274ZM80.5295 144L85.0655 121.32H89.4895L94.0255 144H90.1895L89.2935 138.764H85.3455L84.4215 144H80.5295ZM85.7655 136.132H88.8455L87.3055 126.612L85.7655 136.132ZM103.004 144.308C101.343 144.308 100.036 143.981 99.0843 143.328C98.151 142.675 97.4977 141.788 97.1243 140.668C96.751 139.529 96.5643 138.223 96.5643 136.748V128.656C96.5643 127.107 96.751 125.763 97.1243 124.624C97.4977 123.485 98.151 122.608 99.0843 121.992C100.036 121.376 101.343 121.068 103.004 121.068C104.572 121.068 105.795 121.339 106.672 121.88C107.568 122.403 108.203 123.159 108.576 124.148C108.95 125.137 109.136 126.285 109.136 127.592V129.496H105.16V127.536C105.16 126.901 105.123 126.323 105.048 125.8C104.992 125.277 104.815 124.867 104.516 124.568C104.236 124.251 103.742 124.092 103.032 124.092C102.323 124.092 101.8 124.26 101.464 124.596C101.147 124.913 100.942 125.352 100.848 125.912C100.755 126.453 100.708 127.069 100.708 127.76V137.616C100.708 138.437 100.774 139.119 100.904 139.66C101.035 140.183 101.268 140.584 101.604 140.864C101.959 141.125 102.435 141.256 103.032 141.256C103.723 141.256 104.208 141.097 104.488 140.78C104.787 140.444 104.974 140.005 105.048 139.464C105.123 138.923 105.16 138.316 105.16 137.644V135.6H109.136V137.42C109.136 138.764 108.959 139.959 108.604 141.004C108.25 142.031 107.624 142.843 106.728 143.44C105.851 144.019 104.61 144.308 103.004 144.308ZM115.129 144V124.372H111.517V121.32H122.829V124.372H119.273V144H115.129ZM131.949 144.308C130.269 144.308 128.962 144 128.029 143.384C127.095 142.768 126.451 141.891 126.097 140.752C125.742 139.613 125.565 138.251 125.565 136.664V121.32H129.597V137.14C129.597 137.849 129.643 138.521 129.737 139.156C129.83 139.772 130.045 140.276 130.381 140.668C130.735 141.041 131.258 141.228 131.949 141.228C132.677 141.228 133.199 141.041 133.517 140.668C133.853 140.276 134.067 139.772 134.161 139.156C134.273 138.521 134.329 137.849 134.329 137.14V121.32H138.333V136.664C138.333 138.251 138.155 139.613 137.801 140.752C137.446 141.891 136.802 142.768 135.869 143.384C134.954 144 133.647 144.308 131.949 144.308ZM142.432 144V121.32H147.864C149.395 121.32 150.683 121.507 151.728 121.88C152.792 122.235 153.595 122.851 154.136 123.728C154.696 124.605 154.976 125.8 154.976 127.312C154.976 128.227 154.892 129.048 154.724 129.776C154.556 130.504 154.267 131.129 153.856 131.652C153.464 132.156 152.913 132.548 152.204 132.828L155.368 144H151.224L148.48 133.612H146.576V144H142.432ZM146.576 131.008H147.864C148.667 131.008 149.301 130.896 149.768 130.672C150.253 130.429 150.599 130.056 150.804 129.552C151.009 129.029 151.112 128.367 151.112 127.564C151.112 126.425 150.897 125.576 150.468 125.016C150.057 124.437 149.264 124.148 148.088 124.148H146.576V131.008ZM159.079 144V121.32H163.167V144H159.079ZM167.518 144V121.32H170.402L175.918 134.256V121.32H179.334V144H176.59L171.046 130.448V144H167.518ZM189.3 144.308C187.807 144.308 186.621 143.991 185.744 143.356C184.867 142.721 184.232 141.825 183.84 140.668C183.467 139.492 183.28 138.111 183.28 136.524V128.908C183.28 127.284 183.467 125.884 183.84 124.708C184.213 123.532 184.867 122.636 185.8 122.02C186.752 121.385 188.059 121.068 189.72 121.068C191.269 121.068 192.501 121.329 193.416 121.852C194.331 122.375 194.984 123.131 195.376 124.12C195.787 125.091 195.992 126.276 195.992 127.676V128.852H192.044V127.564C192.044 126.836 191.988 126.211 191.876 125.688C191.783 125.165 191.577 124.773 191.26 124.512C190.961 124.232 190.467 124.092 189.776 124.092C189.048 124.092 188.516 124.269 188.18 124.624C187.863 124.979 187.657 125.445 187.564 126.024C187.489 126.603 187.452 127.237 187.452 127.928V137.42C187.452 138.204 187.517 138.885 187.648 139.464C187.779 140.043 188.021 140.491 188.376 140.808C188.731 141.107 189.235 141.256 189.888 141.256C190.56 141.256 191.073 141.088 191.428 140.752C191.783 140.416 192.025 139.949 192.156 139.352C192.305 138.755 192.38 138.045 192.38 137.224V135.096H189.944V132.492H196.104V144H193.444L193.136 141.76C192.837 142.507 192.38 143.123 191.764 143.608C191.167 144.075 190.345 144.308 189.3 144.308Z" fill="#F5F5F5"/>
</svg>
