<svg width="127" height="134" viewBox="0 0 127 134" fill="none" xmlns="http://www.w3.org/2000/svg">
<path d="M83.0713 39.9028C82.9153 39.4346 82.6167 39.027 82.2175 38.737C81.8182 38.447 81.3382 38.2891 80.8447 38.2856H69.1963L65.6104 27.2231C65.4562 26.7542 65.158 26.3459 64.7582 26.0565C64.3584 25.767 63.8774 25.6112 63.3838 25.6112C62.8902 25.6112 62.4092 25.767 62.0094 26.0565C61.6096 26.3459 61.3114 26.7542 61.1572 27.2231L57.5713 38.2856H45.9229C45.4294 38.2891 44.9494 38.447 44.5501 38.737C44.1508 39.027 43.8523 39.4346 43.6963 39.9028C43.5405 40.3755 43.5407 40.8857 43.6968 41.3583C43.8529 41.8309 44.1568 42.2409 44.5635 42.5278L53.9619 49.3715L50.376 60.434C50.2212 60.9046 50.2194 61.4121 50.371 61.8837C50.5226 62.3553 50.8197 62.7668 51.2197 63.059C51.6241 63.345 52.1073 63.4985 52.6025 63.4985C53.0978 63.4985 53.5809 63.345 53.9854 63.059L63.3838 56.2153L72.7822 63.059C73.1901 63.3386 73.6706 63.4934 74.165 63.5043C74.6606 63.5005 75.1432 63.3451 75.5479 63.059C75.9479 62.7668 76.245 62.3553 76.3966 61.8837C76.5482 61.4121 76.5464 60.9046 76.3916 60.434L72.8057 49.3715L82.2041 42.5278C82.6108 42.2409 82.9146 41.8309 83.0708 41.3583C83.2269 40.8857 83.2271 40.3755 83.0713 39.9028ZM68.6807 46.5825C68.2782 46.873 67.9777 47.2832 67.822 47.7545C67.6663 48.2259 67.6633 48.7343 67.8135 49.2075L69.7119 55.02L64.7666 51.4106C64.3637 51.121 63.88 50.9652 63.3838 50.9652C62.8876 50.9652 62.4039 51.121 62.001 51.4106L57.0557 55.02L58.9541 49.2075C59.1043 48.7343 59.1013 48.2259 58.9456 47.7545C58.7899 47.2832 58.4894 46.873 58.0869 46.5825L53.1416 42.9731H59.2588C59.7538 42.976 60.2368 42.8207 60.6374 42.5297C61.0379 42.2388 61.335 41.8276 61.4854 41.3559L63.3838 35.5434L65.2822 41.3559C65.4326 41.8276 65.7297 42.2388 66.1302 42.5297C66.5308 42.8207 67.0138 42.976 67.5088 42.9731H73.626L68.6807 46.5825Z" fill="#35333C"/>
<path d="M63.3837 15.7387C55.3823 15.7365 47.6894 18.8253 41.9112 24.3602C36.133 29.8951 32.7163 37.4481 32.3745 45.4422C32.0328 53.4363 34.7923 61.2534 40.077 67.2613C45.3617 73.2691 52.7629 77.0033 60.7353 77.684C61.6259 77.7543 62.4931 77.8012 63.3837 77.8012C64.1806 77.8012 65.0009 77.7543 65.7978 77.684H66.0322V77.6606C74.0015 76.98 81.3999 73.2471 86.6825 67.2414C91.9651 61.2357 94.7234 53.4215 94.3817 45.4305C94.0399 37.4394 90.6244 29.8893 84.8483 24.3566C79.0722 18.8239 71.3821 15.7364 63.3837 15.7387ZM86.3759 59.6137C86.3697 59.6137 86.3637 59.6162 86.3593 59.6206C86.3549 59.625 86.3525 59.6309 86.3525 59.6371C84.256 63.3944 81.2675 66.5782 77.6502 68.9079C74.033 71.2377 69.8982 72.6418 65.6103 72.9965L65.5868 73.02H65.5634C64.0978 73.1643 62.6212 73.1564 61.1572 72.9965C55.4916 72.5137 50.1346 70.2102 45.8868 66.4303C41.6391 62.6504 38.7288 57.5972 37.5912 52.0261C36.4535 46.4551 37.1496 40.6654 39.5753 35.5228C42.001 30.3801 46.0261 26.1607 51.0487 23.4953C56.0713 20.83 61.8218 19.8619 67.4402 20.7357C73.0587 21.6096 78.2435 24.2784 82.2193 28.3434C86.1952 32.4083 88.7486 37.6508 89.4978 43.2873C90.2471 48.9238 89.1518 54.6513 86.3759 59.6137Z" fill="#35333C"/>
<path d="M126.384 115.278L117.571 101.614C111.267 91.8872 104.97 82.145 98.6806 72.3872C99.1728 72.1997 99.7353 71.9887 100.298 71.8012C101.568 71.5468 102.775 71.0429 103.849 70.3188C104.924 69.5946 105.843 68.6646 106.556 67.5825C106.954 66.3589 107.107 65.0687 107.007 63.7859C106.906 62.503 106.554 61.2525 105.97 60.1059C105.419 58.9064 105.123 57.6054 105.102 56.2856C105.683 55.1575 106.489 54.1604 107.47 53.3559C108.513 52.5658 109.39 51.5772 110.049 50.4469C110.709 49.3166 111.139 48.067 111.313 46.77C111.141 45.4755 110.713 44.2283 110.053 43.1015C109.393 41.9747 108.515 40.9908 107.47 40.2075C106.492 39.3902 105.688 38.3862 105.102 37.2543C105.123 35.9345 105.419 34.6335 105.97 33.434C106.553 32.2915 106.905 31.0449 107.006 29.7659C107.107 28.4869 106.953 27.2006 106.556 25.9809C105.841 24.9006 104.921 23.9719 103.847 23.248C102.773 22.5241 101.567 22.0191 100.298 21.7622C99.0355 21.4429 97.8487 20.8773 96.8056 20.0981C96.2869 18.9054 96.0005 17.6247 95.9619 16.3247C95.9972 15.033 95.7773 13.747 95.3148 12.5405C94.8522 11.3339 94.1562 10.2305 93.2666 9.29341C91.0264 7.97463 88.3556 7.59548 85.8369 8.23872C84.5613 8.50203 83.2453 8.50203 81.9697 8.23872C80.988 7.41633 80.1827 6.40384 79.6025 5.26216C79.0695 4.06612 78.3039 2.98807 77.3503 2.09077C76.3967 1.19347 75.274 0.494849 74.0478 0.0355921C72.778 -0.0735761 71.4991 0.0689789 70.2845 0.455083C69.0699 0.841187 67.9434 1.46325 66.9697 2.28559C65.9051 3.09697 64.6842 3.67948 63.3837 3.99653C62.0833 3.67948 60.8624 3.09697 59.7978 2.28559C58.8276 1.46505 57.7051 0.843957 56.4946 0.457867C55.284 0.0717769 54.0092 -0.0717207 52.7431 0.0355921C51.5118 0.49081 50.384 1.18772 49.426 2.08531C48.468 2.9829 47.6993 4.06303 47.165 5.26216C46.5838 6.39674 45.7879 7.40765 44.8212 8.23872C43.5377 8.50165 42.2142 8.50165 40.9306 8.23872C38.4196 7.59518 35.7559 7.97452 33.5244 9.29341C32.6248 10.2294 31.9209 11.3354 31.4541 12.5468C30.9873 13.7581 30.7668 15.0505 30.8056 16.3481C30.7817 17.6449 30.4863 18.9224 29.9384 20.0981C28.9166 20.8786 27.7432 21.4374 26.4931 21.7387C23.9236 22.2583 21.6648 23.7754 20.2119 25.9575C19.8136 27.1811 19.6604 28.4712 19.7609 29.7541C19.8615 31.0369 20.2138 32.2874 20.7978 33.434C21.3487 34.6335 21.644 35.9345 21.665 37.2543C21.08 38.3862 20.2752 39.3902 19.2978 40.2075C18.253 40.9908 17.3749 41.9747 16.7149 43.1015C16.0549 44.2283 15.6262 45.4755 15.4541 46.77C15.6288 48.067 16.0584 49.3166 16.7181 50.4469C17.3777 51.5772 18.2545 52.5658 19.2978 53.3559C20.2788 54.1604 21.0845 55.1575 21.665 56.2856C21.644 57.6054 21.3487 58.9064 20.7978 60.1059C20.2142 61.2485 19.8621 62.495 19.7615 63.774C19.661 65.053 19.814 66.3393 20.2119 67.559C20.9205 68.6444 21.8393 69.5769 22.914 70.3014C23.9888 71.026 25.1978 71.528 26.4697 71.7778C27.0087 71.9887 27.5712 72.1762 28.0869 72.3872C21.7822 82.1372 15.4853 91.8793 9.19624 101.614L0.383744 115.278C0.129548 115.661 -0.00408263 116.111 9.50451e-05 116.57C0.00427272 117.03 0.146067 117.478 0.407182 117.856C0.661818 118.234 1.02196 118.529 1.44284 118.704C1.86371 118.879 2.32675 118.926 2.77437 118.84L18.7822 115.864L22.6728 131.707C22.7858 132.15 23.0257 132.55 23.3629 132.858C23.7002 133.166 24.1202 133.369 24.5712 133.442C24.6945 133.469 24.8201 133.485 24.9462 133.489C25.339 133.491 25.726 133.394 26.0705 133.205C26.415 133.016 26.7057 132.743 26.915 132.411L52.1806 93.2934C52.3681 93.3403 52.5322 93.4575 52.7197 93.5043C53.1036 93.5959 53.4968 93.6431 53.8916 93.645C56.043 93.4078 58.0871 92.5805 59.7978 91.2543C60.8624 90.443 62.0833 89.8605 63.3837 89.5434C64.6842 89.8605 65.9051 90.443 66.9697 91.2543C67.944 92.0832 69.0741 92.7091 70.2936 93.0955C71.513 93.4819 72.7974 93.6209 74.0713 93.5043C74.2588 93.4575 74.4228 93.3403 74.5869 93.2934L99.8525 132.411C100.062 132.743 100.353 133.016 100.697 133.205C101.042 133.394 101.428 133.491 101.821 133.489C101.947 133.485 102.073 133.469 102.196 133.442C102.647 133.369 103.067 133.166 103.405 132.858C103.742 132.55 103.982 132.15 104.095 131.707L107.985 115.864L123.993 118.84C124.441 118.924 124.903 118.875 125.323 118.7C125.744 118.526 126.104 118.232 126.36 117.856C126.621 117.478 126.763 117.03 126.767 116.57C126.772 116.111 126.638 115.661 126.384 115.278ZM25.9306 125.286L22.8134 112.606C22.6734 112.024 22.3162 111.518 21.8151 111.191C21.314 110.865 20.7069 110.742 20.1181 110.848L7.27437 113.239L13.1337 104.168C18.9931 95.0747 24.8681 85.9809 30.7587 76.8871C30.7842 76.9949 30.7999 77.1047 30.8056 77.2153C30.7703 78.507 30.9902 79.7929 31.4527 80.9994C31.9153 82.206 32.6113 83.3094 33.5009 84.2465C35.7415 85.5641 38.4119 85.9432 40.9306 85.3012C42.2062 85.0379 43.5222 85.0379 44.7978 85.3012C45.7851 86.1182 46.5913 87.1319 47.165 88.2778C47.6103 88.9575 48.0556 89.6372 48.5244 90.2934L25.9306 125.286ZM73.6963 88.4653C73.5068 88.6802 73.2644 88.8419 72.9931 88.934C72.3369 89.0747 70.6025 88.02 69.4775 87.2934C67.7153 85.925 65.6035 85.0803 63.3837 84.8559C61.164 85.0803 59.0522 85.925 57.29 87.2934C56.165 88.02 54.4306 89.0981 53.7978 88.9575C53.5105 88.8475 53.2534 88.6707 53.0478 88.4418C52.322 87.6296 51.6855 86.7417 51.1494 85.7934C50.1795 83.8589 48.6956 82.229 46.8603 81.0825C45.7949 80.5975 44.6319 80.3649 43.4619 80.4028C42.4426 80.4226 41.4253 80.5008 40.415 80.6372C38.9619 80.8012 36.9931 81.0356 36.4306 80.5903C35.8681 80.145 35.6337 78.1528 35.4697 76.6997C35.4411 74.5049 34.7998 72.3618 33.6181 70.5122C33.4316 70.2781 33.2193 70.0658 32.9853 69.8793C32.8959 69.8035 32.8019 69.733 32.7041 69.6684L32.6806 69.645H32.6572C31.256 68.6203 29.685 67.8507 28.0166 67.3715C26.6337 66.8793 24.7587 66.2231 24.4306 65.52C24.1025 64.8637 24.7587 63.0122 25.2275 61.6528C26.1663 59.6596 26.516 57.4396 26.2353 55.2543C25.547 53.2016 24.2866 51.3883 22.6025 50.0278C21.5712 48.9965 20.1416 47.5668 20.1416 46.77C20.1416 45.9731 21.5712 44.5434 22.6025 43.5122C24.2866 42.1516 25.547 40.3383 26.2353 38.2856C26.516 36.1003 26.1663 33.8803 25.2275 31.8872C24.7587 30.5278 24.1025 28.6762 24.4306 27.9965C24.7587 27.3168 26.6572 26.6606 28.04 26.1684C30.1528 25.6716 32.0798 24.5821 33.5947 23.0278C34.7938 21.1935 35.4443 19.055 35.4697 16.8637C35.6337 15.4106 35.8447 13.4418 36.4306 12.9731C37.0166 12.5043 38.9619 12.7387 40.415 12.9028C42.5628 13.3603 44.7959 13.206 46.8603 12.4575C48.7011 11.3176 50.1867 9.68589 51.1494 7.74653C51.9228 6.4809 53.0009 4.76997 53.7744 4.60591C54.4306 4.44184 56.165 5.54341 57.29 6.24653C59.0522 7.61489 61.164 8.4596 63.3837 8.68403C65.6035 8.4596 67.7153 7.61489 69.4775 6.24653C70.6025 5.54341 72.3134 4.46528 72.9931 4.60591C73.7666 4.76997 74.8447 6.4809 75.6181 7.74653C76.5808 9.68589 78.0664 11.3176 79.9072 12.4575C81.9716 13.206 84.2047 13.3603 86.3525 12.9028C87.8056 12.7387 89.7744 12.5043 90.3369 12.9497C90.8994 13.395 91.1337 15.3872 91.2978 16.8403C91.3264 19.035 91.9677 21.1781 93.1494 23.0278C94.6867 24.582 96.6262 25.6776 98.7509 26.1918C100.134 26.6606 102.009 27.3168 102.337 28.02C102.665 28.6762 102.009 30.5278 101.54 31.8872C100.601 33.8803 100.251 36.1003 100.532 38.2856C101.22 40.3383 102.481 42.1516 104.165 43.5122C105.196 44.5434 106.626 45.9731 106.626 46.77C106.626 47.5668 105.196 48.9965 104.165 50.0278C102.481 51.3883 101.22 53.2016 100.532 55.2543C100.251 57.4396 100.601 59.6596 101.54 61.6528C102.009 63.0122 102.665 64.8637 102.337 65.5434C102.009 66.2231 100.11 66.9028 98.7509 67.3715C96.9958 67.8511 95.3489 68.6626 93.8994 69.7622C93.6395 69.9945 93.3967 70.2451 93.1728 70.5122C91.9736 72.3464 91.3231 74.4849 91.2978 76.6762C91.1337 78.1293 90.9228 80.0981 90.3369 80.5668C89.7509 81.0356 87.8056 80.8012 86.3525 80.6372C84.2056 80.1679 81.9692 80.3224 79.9072 81.0825C78.0719 82.229 76.588 83.8589 75.6181 85.7934C75.0764 86.7512 74.432 87.6471 73.6963 88.4653ZM106.649 110.848C106.061 110.742 105.453 110.865 104.952 111.191C104.451 111.518 104.094 112.024 103.954 112.606L100.837 125.286L78.2431 90.2934C78.7119 89.6372 79.1572 88.9575 79.6025 88.2778C80.1769 87.1389 80.9738 86.1267 81.9462 85.3012C83.2298 85.0383 84.5533 85.0383 85.8369 85.3012C88.3479 85.9447 91.0116 85.5654 93.2431 84.2465C94.1406 83.3139 94.8433 82.2118 95.3101 81.0045C95.7769 79.7973 95.9985 78.5091 95.9619 77.2153C95.966 77.1046 95.9817 76.9946 96.0087 76.8871C101.892 85.9809 107.767 95.0747 113.634 104.168L119.493 113.239L106.649 110.848Z" fill="#35333C"/>
</svg>
